<svg viewBox="0 0 200 200" xmlns="http://www.w3.org/2000/svg">
  <path fill="#A7F0BA" d="M41.7,-73.6C52.1,-66.1,57.4,-51.1,61.4,-37.6C65.5,-24.1,68.5,-12.1,67.3,-0.7C66.1,10.7,60.9,21.4,57.1,35.5C53.3,49.5,51,66.8,41.7,73.1C32.4,79.4,16.2,74.6,2.9,69.6C-10.4,64.6,-20.8,59.4,-31.6,53.9C-42.3,48.5,-53.4,42.8,-64.2,33.8C-75,24.8,-85.6,12.4,-85.5,0.1C-85.4,-12.3,-74.6,-24.6,-64,-33.9C-53.3,-43.3,-42.9,-49.7,-32.2,-57.1C-21.6,-64.4,-10.8,-72.7,2.4,-76.9C15.6,-81,31.2,-81.1,41.7,-73.6Z" transform="translate(100 100)" />
</svg>